<?xml version="1.0" encoding="utf-8"?>
<svg width="256px" height="256px" viewBox="0 0 256 256" version="1.1" xmlns:xlink="http://www.w3.org/1999/xlink" xmlns="http://www.w3.org/2000/svg">
  <defs>
    <path d="M256 0L256 0L256 256L0 256L0 0L256 0Z" id="path_1" />
    <path d="M156 49C161.524 49 166 53.4764 166 59L166 81C166 86.5236 161.524 91 156 91L155 91C149.476 91 145 86.5236 145 81L145 59C145 53.4764 149.476 49 155 49L156 49Z" id="path_2" />
    <path d="M85 49C90.5236 49 95 53.4764 95 59L95 81C95 86.5236 90.5236 91 85 91L84 91C78.4764 91 74 86.5236 74 81L74 59C74 53.4764 78.4764 49 84 49L85 49Z" id="path_3" />
    <path d="M132 96C140.285 96 147 102.715 147 111L147 139C147 147.285 140.285 154 132 154L92 154C83.7146 154 77 147.285 77 139L77 111C77 102.715 83.7146 96 92 96L132 96Z" id="path_4" />
    <path d="M49 0C53.9712 0 58 4.02876 58 9L58 37C58 41.9712 53.9712 46 49 46L9 46C4.02876 46 0 41.9712 0 37L0 9C0 4.02876 4.02876 0 9 0L49 0Z" id="path_5" />
    <path d="M28.6296 2.29346L51.757 34.8431Q51.7966 34.8989 51.8323 34.9572Q51.868 35.0155 51.8996 35.0761Q51.9312 35.1368 51.9587 35.1994Q51.9861 35.2621 52.0092 35.3264Q52.0322 35.3908 52.0509 35.4566Q52.0695 35.5224 52.0836 35.5893Q52.0976 35.6562 52.1071 35.724Q52.1166 35.7917 52.1214 35.8599Q52.1263 35.9281 52.1264 35.9965Q52.1266 36.0649 52.122 36.1331Q52.1175 36.2014 52.1083 36.2691Q52.0992 36.3369 52.0854 36.4039Q52.0716 36.4709 52.0533 36.5368Q52.0349 36.6026 52.0121 36.6671Q51.9894 36.7316 51.9622 36.7944Q51.9351 36.8571 51.9037 36.9179Q51.8723 36.9787 51.8369 37.0372Q51.8014 37.0956 51.7621 37.1516Q51.7227 37.2075 51.6796 37.2606Q51.6365 37.3137 51.5899 37.3637Q51.5433 37.4137 51.4934 37.4605Q51.4434 37.5072 51.3904 37.5504Q51.3374 37.5936 51.2816 37.6331Q51.2258 37.6726 51.1674 37.7082Q51.109 37.7438 51.0483 37.7752Q50.9876 37.8068 50.9249 37.834Q50.8622 37.8613 50.7977 37.8843Q50.7333 37.9072 50.6675 37.9257Q50.6016 37.9441 50.5347 37.9581Q50.4677 37.972 50.4 37.9813Q50.3322 37.9907 50.264 37.9953Q50.1958 38 50.1274 38L3.87261 38Q3.80422 38 3.73599 37.9953Q3.66777 37.9907 3.60002 37.9813Q3.53227 37.972 3.46532 37.9581Q3.39837 37.9441 3.33253 37.9257Q3.26669 37.9072 3.20226 37.8843Q3.13784 37.8613 3.07513 37.834Q3.01242 37.8068 2.95172 37.7753Q2.89103 37.7438 2.83262 37.7082Q2.77422 37.6726 2.71839 37.6331Q2.66255 37.5936 2.60955 37.5504Q2.55654 37.5072 2.50661 37.4605Q2.45668 37.4137 2.41006 37.3637Q2.36344 37.3137 2.32035 37.2606Q2.27726 37.2075 2.2379 37.1516Q2.19854 37.0956 2.16309 37.0372Q2.12765 36.9787 2.09628 36.9179Q2.06491 36.8571 2.03777 36.7944Q2.01063 36.7316 1.98784 36.6671Q1.96505 36.6026 1.94672 36.5368Q1.92839 36.4709 1.91461 36.4039Q1.90083 36.3369 1.89165 36.2691Q1.88248 36.2014 1.87796 36.1331Q1.87343 36.0649 1.87359 35.9965Q1.87374 35.9281 1.87856 35.8599Q1.88339 35.7917 1.89286 35.724Q1.90234 35.6562 1.91642 35.5893Q1.9305 35.5224 1.94913 35.4566Q1.96775 35.3908 1.99082 35.3264Q2.0139 35.2621 2.04132 35.1994Q2.06874 35.1368 2.10038 35.0761Q2.13202 35.0155 2.16772 34.9572Q2.20343 34.8989 2.24304 34.8431L25.3704 2.29346Q25.4049 2.24491 25.4423 2.19851Q25.4796 2.1521 25.5196 2.108Q25.5596 2.06389 25.6022 2.02225Q25.6448 1.98061 25.6897 1.94157Q25.7347 1.90254 25.7819 1.86625Q25.8292 1.82996 25.8785 1.79655Q25.9278 1.76314 25.979 1.73272Q26.0301 1.7023 26.0831 1.67499Q26.136 1.64767 26.1904 1.62355Q26.2449 1.59943 26.3007 1.5786Q26.3565 1.55777 26.4134 1.54029Q26.4703 1.52281 26.5282 1.50876Q26.5861 1.4947 26.6447 1.48412Q26.7033 1.47353 26.7624 1.46646Q26.8215 1.45938 26.881 1.45583Q26.9404 1.45229 27 1.45229Q27.0596 1.45229 27.119 1.45583Q27.1784 1.45938 27.2376 1.46646Q27.2967 1.47353 27.3553 1.48412Q27.4139 1.4947 27.4718 1.50876Q27.5297 1.52281 27.5866 1.54029Q27.6435 1.55777 27.6993 1.5786Q27.7551 1.59943 27.8096 1.62355Q27.864 1.64767 27.9169 1.67499Q27.9699 1.7023 28.0211 1.73272Q28.0722 1.76314 28.1215 1.79655Q28.1708 1.82996 28.2181 1.86625Q28.2653 1.90254 28.3103 1.94157Q28.3552 1.98061 28.3978 2.02225Q28.4404 2.06389 28.4804 2.108Q28.5204 2.1521 28.5577 2.19851Q28.5951 2.24491 28.6296 2.29346L28.6296 2.29346Z" id="path_6" />
    <clipPath id="clip_1">
      <use xlink:href="#path_1" clip-rule="evenodd" fill-rule="evenodd" />
    </clipPath>
    <clipPath id="clip_2">
      <use xlink:href="#path_2" />
    </clipPath>
    <clipPath id="clip_3">
      <use xlink:href="#path_3" />
    </clipPath>
    <clipPath id="clip_4">
      <use xlink:href="#path_4" />
    </clipPath>
    <clipPath id="clip_5">
      <use xlink:href="#path_5" clip-rule="evenodd" fill-rule="evenodd" />
    </clipPath>
    <clipPath id="clip_6">
      <use xlink:href="#path_6" clip-rule="evenodd" fill-rule="evenodd" />
    </clipPath>
  </defs>
  <g id="Icon 256">
    <path d="M256 0L256 0L256 256L0 256L0 0L256 0Z" id="Icon-256" fill="#FFFFFF" stroke="none" />
    <path d="M14 129.5C14 67.368 64.368 17 126.5 17C188.632 17 239 67.368 239 129.5C239 191.632 188.632 242 126.5 242C64.368 242 14 191.632 14 129.5Z" id="楕円" fill="#71B7BF" fill-rule="evenodd" stroke="none" clip-path="url(#clip_1)" />
    <path d="M168 59.5C168 52.5955 162.404 47 155.5 47C148.596 47 143 52.5955 143 59.5L143 60L97 60L97 59.5C97 52.5955 91.4045 47 84.5 47C77.5955 47 72 52.5955 72 59.5L72 60.9153C63.8851 63.4633 58 71.0433 58 80L58 186C58 197.047 66.9528 206 78 206L128.609 206L126.262 214.031C126.262 214.031 125.978 218.432 128.224 219.9C130.469 221.368 134.229 219.205 134.229 219.205L149.801 206L162 206C173.047 206 182 197.047 182 186L182 169.47L206.693 131.447C211.807 123.571 209.57 113.045 201.694 107.93L200.271 107.006C194.549 103.29 187.428 103.455 182 106.844L182 80C182 71.0433 176.115 63.4633 168 60.9153L168 59.5L168 59.5Z" id="ベクター" fill="#FFFFFF" fill-rule="evenodd" stroke="none" clip-path="url(#clip_1)" />
    <g id="長方形" clip-path="url(#clip_1)">
      <g clip-path="url(#clip_2)">
        <use xlink:href="#path_2" fill="none" stroke="#092533" stroke-width="16" />
      </g>
    </g>
    <g id="長方形" clip-path="url(#clip_1)">
      <g clip-path="url(#clip_3)">
        <use xlink:href="#path_3" fill="none" stroke="#092533" stroke-width="16" />
      </g>
    </g>
    <path d="M117.5 160C119.433 160 121 161.567 121 163.5L121 163.5C121 165.433 119.433 167 117.5 167L80.5 167C78.5667 167 77 165.433 77 163.5L77 163.5C77 161.567 78.5667 160 80.5 160L117.5 160Z" id="長方形" fill="#092437" stroke="none" clip-path="url(#clip_1)" />
    <path d="M117.5 173C119.433 173 121 174.567 121 176.5L121 176.5C121 178.433 119.433 180 117.5 180L80.5 180C78.5667 180 77 178.433 77 176.5L77 176.5C77 174.567 78.5667 173 80.5 173L117.5 173Z" id="長方形" fill="#092437" stroke="none" clip-path="url(#clip_1)" />
    <path d="M140.041 171.287L176.849 114.608C179.175 111.129 187.642 100.877 200.174 108.987C212.706 117.096 206.186 129.755 204.526 132.581L167.717 189.26L133.22 218.513C133.22 218.513 131.072 220.32 128.826 218.852C126.581 217.384 127.349 214.7 127.349 214.7L140.041 171.287ZM179.386 121.719L196.998 133.156L194.275 137.349L176.663 125.912L179.386 121.719ZM190.462 143.22L172.85 131.783L170.127 135.976L187.739 147.414L190.462 143.22ZM171.641 146.498L166.609 143.23L149.725 169.229L154.757 172.497L171.641 146.498ZM177.511 150.31L182.543 153.578L165.659 179.577L160.627 176.309L177.511 150.31ZM161.847 185.448L137.54 205.434L145.912 175.1L161.847 185.448Z" id="三角形-中マド" fill="#082430" fill-rule="evenodd" stroke="none" clip-path="url(#clip_1)" />
    <g id="長方形" clip-path="url(#clip_1)">
      <g clip-path="url(#clip_4)">
        <use xlink:href="#path_4" fill="none" stroke="#082432" stroke-width="12" />
      </g>
    </g>
    <g id="三角形-マスク-マスク" transform="translate(83 102)" clip-path="url(#clip_1)">
      <path d="M49 0C53.9712 0 58 4.02876 58 9L58 37C58 41.9712 53.9712 46 49 46L9 46C4.02876 46 0 41.9712 0 37L0 9C0 4.02876 4.02876 0 9 0L49 0Z" id="マスク" fill="#71B7BF" stroke="none" />
      <g clip-path="url(#clip_5)">
        <g id="三角形-マスク" transform="translate(-6 12)">
          <path d="M28.6296 2.29346L51.757 34.8431Q51.7966 34.8989 51.8323 34.9572Q51.868 35.0155 51.8996 35.0761Q51.9312 35.1368 51.9587 35.1994Q51.9861 35.2621 52.0092 35.3264Q52.0322 35.3908 52.0509 35.4566Q52.0695 35.5224 52.0836 35.5893Q52.0976 35.6562 52.1071 35.724Q52.1166 35.7917 52.1214 35.8599Q52.1263 35.9281 52.1264 35.9965Q52.1266 36.0649 52.122 36.1331Q52.1175 36.2014 52.1083 36.2691Q52.0992 36.3369 52.0854 36.4039Q52.0716 36.4709 52.0533 36.5368Q52.0349 36.6026 52.0121 36.6671Q51.9894 36.7316 51.9622 36.7944Q51.9351 36.8571 51.9037 36.9179Q51.8723 36.9787 51.8369 37.0372Q51.8014 37.0956 51.7621 37.1516Q51.7227 37.2075 51.6796 37.2606Q51.6365 37.3137 51.5899 37.3637Q51.5433 37.4137 51.4934 37.4605Q51.4434 37.5072 51.3904 37.5504Q51.3374 37.5936 51.2816 37.6331Q51.2258 37.6726 51.1674 37.7082Q51.109 37.7438 51.0483 37.7752Q50.9876 37.8068 50.9249 37.834Q50.8622 37.8613 50.7977 37.8843Q50.7333 37.9072 50.6675 37.9257Q50.6016 37.9441 50.5347 37.9581Q50.4677 37.972 50.4 37.9813Q50.3322 37.9907 50.264 37.9953Q50.1958 38 50.1274 38L3.87261 38Q3.80422 38 3.73599 37.9953Q3.66777 37.9907 3.60002 37.9813Q3.53227 37.972 3.46532 37.9581Q3.39837 37.9441 3.33253 37.9257Q3.26669 37.9072 3.20226 37.8843Q3.13784 37.8613 3.07513 37.834Q3.01242 37.8068 2.95172 37.7753Q2.89103 37.7438 2.83262 37.7082Q2.77422 37.6726 2.71839 37.6331Q2.66255 37.5936 2.60955 37.5504Q2.55654 37.5072 2.50661 37.4605Q2.45668 37.4137 2.41006 37.3637Q2.36344 37.3137 2.32035 37.2606Q2.27726 37.2075 2.2379 37.1516Q2.19854 37.0956 2.16309 37.0372Q2.12765 36.9787 2.09628 36.9179Q2.06491 36.8571 2.03777 36.7944Q2.01063 36.7316 1.98784 36.6671Q1.96505 36.6026 1.94672 36.5368Q1.92839 36.4709 1.91461 36.4039Q1.90083 36.3369 1.89165 36.2691Q1.88248 36.2014 1.87796 36.1331Q1.87343 36.0649 1.87359 35.9965Q1.87374 35.9281 1.87856 35.8599Q1.88339 35.7917 1.89286 35.724Q1.90234 35.6562 1.91642 35.5893Q1.9305 35.5224 1.94913 35.4566Q1.96775 35.3908 1.99082 35.3264Q2.0139 35.2621 2.04132 35.1994Q2.06874 35.1368 2.10038 35.0761Q2.13202 35.0155 2.16772 34.9572Q2.20343 34.8989 2.24304 34.8431L25.3704 2.29346Q25.4049 2.24491 25.4423 2.19851Q25.4796 2.1521 25.5196 2.108Q25.5596 2.06389 25.6022 2.02225Q25.6448 1.98061 25.6897 1.94157Q25.7347 1.90254 25.7819 1.86625Q25.8292 1.82996 25.8785 1.79655Q25.9278 1.76314 25.979 1.73272Q26.0301 1.7023 26.0831 1.67499Q26.136 1.64767 26.1904 1.62355Q26.2449 1.59943 26.3007 1.5786Q26.3565 1.55777 26.4134 1.54029Q26.4703 1.52281 26.5282 1.50876Q26.5861 1.4947 26.6447 1.48412Q26.7033 1.47353 26.7624 1.46646Q26.8215 1.45938 26.881 1.45583Q26.9404 1.45229 27 1.45229Q27.0596 1.45229 27.119 1.45583Q27.1784 1.45938 27.2376 1.46646Q27.2967 1.47353 27.3553 1.48412Q27.4139 1.4947 27.4718 1.50876Q27.5297 1.52281 27.5866 1.54029Q27.6435 1.55777 27.6993 1.5786Q27.7551 1.59943 27.8096 1.62355Q27.864 1.64767 27.9169 1.67499Q27.9699 1.7023 28.0211 1.73272Q28.0722 1.76314 28.1215 1.79655Q28.1708 1.82996 28.2181 1.86625Q28.2653 1.90254 28.3103 1.94157Q28.3552 1.98061 28.3978 2.02225Q28.4404 2.06389 28.4804 2.108Q28.5204 2.1521 28.5577 2.19851Q28.5951 2.24491 28.6296 2.29346L28.6296 2.29346Z" id="マスク" fill="#CFCFCF" fill-rule="evenodd" stroke="none" />
          <g clip-path="url(#clip_6)">
            <path d="M27 0L35.8476 12.3437L31.5129 11.5L26.9868 15.5L22.5 11.5L18.2292 12.3437L27 0Z" id="三角形" fill="#FFFFFF" fill-rule="evenodd" stroke="none" />
          </g>
        </g>
      </g>
    </g>
    <path d="M168 60.9153L168 69.5729C168.882 70.0917 169.71 70.7388 170.486 71.5142C172.829 73.8569 174 76.6855 174 80L174 186Q174 190.972 170.486 194.486Q166.972 198 162 198L159.462 198L150 206L162 206C173.047 206 182 197.047 182 186L182 80C182 71.0433 176.115 63.4633 168 60.9153ZM143 68L143 60L97 60L97 68L143 68ZM78 198L130.823 198L128.543 206L78 206C66.9528 206 58 197.047 58 186L58 80C58 71.0433 63.8851 63.4633 72 60.9153L72 69.5729Q70.6772 70.3511 69.5142 71.5142C67.1714 73.8569 66 76.6855 66 80L66 186C66 189.314 67.1714 192.143 69.5142 194.486C71.8569 196.829 74.6855 198 78 198ZM182 169.5L174.013 182.128L174.013 116L177.5 111C179.412 108.687 179.99 107.914 182 106.5L182 169.5Z" id="ベクター-型抜き" fill="#082533" fill-rule="evenodd" stroke="none" clip-path="url(#clip_1)" />
  </g>
</svg>